<svg width="268" height="53" viewBox="0 0 268 53" fill="none" xmlns="http://www.w3.org/2000/svg">
<path opacity="0.15" d="M26.4 48.3999C38.5503 48.3999 48.4 38.5502 48.4 26.3999C48.4 14.2496 38.5503 4.3999 26.4 4.3999C14.2498 4.3999 4.40002 14.2496 4.40002 26.3999C4.40002 38.5502 14.2498 48.3999 26.4 48.3999Z" stroke="#1A1A2E" stroke-width="0.88"/>
<path d="M15.3998 29.9201C15.3998 21.1201 19.0665 15.8401 26.3998 14.0801C33.7332 15.8401 37.3998 21.1201 37.3998 29.9201" stroke="#E85D3A" stroke-width="1.1" stroke-linecap="round"/>
<path d="M13.2 29.9199H39.6" stroke="#E85D3A" stroke-width="1.1" stroke-linecap="round"/>
<path opacity="0.4" d="M21.9999 12.32C22.5865 10.56 22.5865 8.80004 21.9999 7.04004" stroke="#E85D3A" stroke-width="0.66" stroke-linecap="round"/>
<path opacity="0.4" d="M26.4 11.4397C26.9866 9.67967 26.9866 7.91967 26.4 6.15967" stroke="#E85D3A" stroke-width="0.66" stroke-linecap="round"/>
<path opacity="0.4" d="M30.8 12.32C31.3867 10.56 31.3867 8.80004 30.8 7.04004" stroke="#E85D3A" stroke-width="0.66" stroke-linecap="round"/>
<path opacity="0.6" d="M26.4001 36.9599C27.3721 36.9599 28.1601 36.172 28.1601 35.1999C28.1601 34.2279 27.3721 33.4399 26.4001 33.4399C25.4281 33.4399 24.6401 34.2279 24.6401 35.1999C24.6401 36.172 25.4281 36.9599 26.4001 36.9599Z" fill="#E85D3A"/>
<path d="M72.7919 38.8999V38.5399L73.5479 38.2519C74.3159 37.9399 74.6999 37.3279 74.6999 36.4159V17.6239C74.6999 16.6639 74.3159 16.0519 73.5479 15.7879L72.7919 15.4999V15.1399H82.2959C84.8399 15.1399 87.0239 15.6199 88.8479 16.5799C90.6959 17.5159 92.1119 18.8719 93.0959 20.6479C94.1039 22.3999 94.6079 24.5119 94.6079 26.9839C94.6079 29.5039 94.0679 31.6519 92.9879 33.4279C91.9079 35.2039 90.3959 36.5599 88.4519 37.4959C86.5319 38.4319 84.2639 38.8999 81.6479 38.8999H72.7919ZM80.0999 38.1799H81.6479C83.3759 38.1799 84.7679 37.8439 85.8239 37.1719C86.8799 36.4759 87.6479 35.3239 88.1279 33.7159C88.6319 32.0839 88.8839 29.8519 88.8839 27.0199C88.8839 24.1879 88.6319 21.9679 88.1279 20.3599C87.6479 18.7279 86.8919 17.5759 85.8599 16.9039C84.8279 16.2079 83.4719 15.8599 81.7919 15.8599H80.0999V38.1799ZM104.5 21.0439C106.06 21.0439 107.392 21.3679 108.496 22.0159C109.6 22.6399 110.44 23.5039 111.016 24.6079C111.616 25.6879 111.916 26.9239 111.916 28.3159C111.916 28.5799 111.904 28.8559 111.88 29.1439C111.856 29.4079 111.808 29.6479 111.736 29.8639H101.008C101.032 32.4559 101.488 34.3279 102.376 35.4799C103.288 36.6079 104.632 37.1719 106.408 37.1719C107.608 37.1719 108.58 36.9799 109.324 36.5959C110.068 36.2119 110.764 35.6479 111.412 34.9039L111.772 35.2279C111.028 36.5479 110.032 37.5799 108.784 38.3239C107.56 39.0679 106.084 39.4399 104.356 39.4399C102.652 39.4399 101.14 39.0799 99.8197 38.3599C98.4997 37.6159 97.4677 36.5599 96.7237 35.1919C95.9797 33.8239 95.6077 32.1919 95.6077 30.2959C95.6077 28.3279 96.0397 26.6599 96.9037 25.2919C97.7677 23.8999 98.8717 22.8439 100.216 22.1239C101.584 21.4039 103.012 21.0439 104.5 21.0439ZM104.392 21.7639C103.696 21.7639 103.096 21.9799 102.592 22.4119C102.112 22.8199 101.728 23.5639 101.44 24.6439C101.176 25.6999 101.032 27.1999 101.008 29.1439H107.164C107.404 26.5279 107.308 24.6439 106.876 23.4919C106.444 22.3399 105.616 21.7639 104.392 21.7639ZM112.655 38.8999V38.5399L113.087 38.3959C113.951 38.1079 114.383 37.5079 114.383 36.5959V17.3359C114.383 16.8559 114.287 16.4959 114.095 16.2559C113.903 15.9919 113.567 15.7999 113.087 15.6799L112.619 15.5719V15.2119L119.207 13.6639L119.639 13.9879L119.495 19.0279V31.3399C119.495 32.2279 119.495 33.1159 119.495 34.0039C119.519 34.8679 119.531 35.7319 119.531 36.5959C119.531 37.0759 119.627 37.4719 119.819 37.7839C120.011 38.0719 120.335 38.2879 120.791 38.4319L121.259 38.5399V38.8999H112.655ZM126.568 19.1719C125.752 19.1719 125.056 18.9199 124.48 18.4159C123.928 17.8879 123.652 17.2279 123.652 16.4359C123.652 15.6199 123.928 14.9599 124.48 14.4559C125.056 13.9519 125.752 13.6999 126.568 13.6999C127.384 13.6999 128.068 13.9519 128.62 14.4559C129.172 14.9599 129.448 15.6199 129.448 16.4359C129.448 17.2279 129.172 17.8879 128.62 18.4159C128.068 18.9199 127.384 19.1719 126.568 19.1719ZM122.32 38.8999V38.5399L122.824 38.3959C123.304 38.2519 123.628 38.0359 123.796 37.7479C123.988 37.4599 124.084 37.0759 124.084 36.5959V25.3279C124.084 24.8239 123.988 24.4519 123.796 24.2119C123.628 23.9479 123.304 23.7679 122.824 23.6719L122.32 23.5639V23.2039L128.908 21.0799L129.268 21.4399L129.16 26.5519V36.6319C129.16 37.1119 129.244 37.4959 129.412 37.7839C129.604 38.0719 129.928 38.2879 130.384 38.4319L130.744 38.5399V38.8999H122.32ZM139.486 39.0079L133.113 23.7079C132.778 22.8919 132.202 22.3519 131.385 22.0879L130.881 21.9439V21.5839H140.205V21.9439L139.558 22.0879C138.622 22.3279 138.334 22.9519 138.694 23.9599L142.474 34.0039L146.002 24.0319C146.194 23.5519 146.242 23.1559 146.146 22.8439C146.05 22.5319 145.762 22.3039 145.282 22.1599L144.382 21.9439V21.5839H149.602V21.9439L148.558 22.1959C148.102 22.3159 147.742 22.4959 147.478 22.7359C147.238 22.9759 147.034 23.3359 146.866 23.8159L141.574 39.0079H139.486ZM157.998 21.0439C159.558 21.0439 160.89 21.3679 161.994 22.0159C163.098 22.6399 163.938 23.5039 164.514 24.6079C165.114 25.6879 165.414 26.9239 165.414 28.3159C165.414 28.5799 165.402 28.8559 165.378 29.1439C165.354 29.4079 165.306 29.6479 165.234 29.8639H154.506C154.53 32.4559 154.986 34.3279 155.874 35.4799C156.786 36.6079 158.13 37.1719 159.906 37.1719C161.106 37.1719 162.078 36.9799 162.822 36.5959C163.566 36.2119 164.262 35.6479 164.91 34.9039L165.27 35.2279C164.526 36.5479 163.53 37.5799 162.282 38.3239C161.058 39.0679 159.582 39.4399 157.854 39.4399C156.15 39.4399 154.638 39.0799 153.318 38.3599C151.998 37.6159 150.966 36.5599 150.222 35.1919C149.478 33.8239 149.106 32.1919 149.106 30.2959C149.106 28.3279 149.538 26.6599 150.402 25.2919C151.266 23.8999 152.37 22.8439 153.714 22.1239C155.082 21.4039 156.51 21.0439 157.998 21.0439ZM157.89 21.7639C157.194 21.7639 156.594 21.9799 156.09 22.4119C155.61 22.8199 155.226 23.5639 154.938 24.6439C154.674 25.6999 154.53 27.1999 154.506 29.1439H160.662C160.902 26.5279 160.806 24.6439 160.374 23.4919C159.942 22.3399 159.114 21.7639 157.89 21.7639ZM166.608 38.8999V38.5399L167.148 38.3959C167.628 38.2519 167.952 38.0359 168.12 37.7479C168.312 37.4599 168.408 37.0879 168.408 36.6319V25.3639C168.408 24.8359 168.312 24.4519 168.12 24.2119C167.952 23.9479 167.628 23.7679 167.148 23.6719L166.608 23.5279V23.1679L172.8 21.0799L173.16 21.4399L173.484 24.5359V24.8239C173.82 24.1519 174.252 23.5399 174.78 22.9879C175.332 22.4119 175.932 21.9439 176.58 21.5839C177.252 21.2239 177.912 21.0439 178.56 21.0439C179.472 21.0439 180.168 21.2959 180.648 21.7999C181.128 22.3039 181.368 22.9399 181.368 23.7079C181.368 24.5239 181.128 25.1599 180.648 25.6159C180.192 26.0479 179.64 26.2639 178.992 26.2639C177.984 26.2639 177.096 25.7599 176.328 24.7519L176.256 24.6799C176.016 24.3439 175.74 24.1639 175.428 24.1399C175.116 24.0919 174.828 24.2359 174.564 24.5719C174.324 24.7879 174.12 25.0519 173.952 25.3639C173.808 25.6519 173.664 25.9879 173.52 26.3719V36.4159C173.52 37.3759 173.94 37.9759 174.78 38.2159L175.932 38.5399V38.8999H166.608Z" fill="#1A1A2E"/>
<path d="M186.584 38.8999V38.5399L188.06 38.1799C189.044 37.9639 189.536 37.3639 189.536 36.3799V15.8599H186.476C185.588 15.8599 184.952 16.0999 184.568 16.5799C184.184 17.0359 183.776 17.6719 183.344 18.4879L182.048 21.0079H181.688L181.868 15.1399H202.64L202.784 21.0079H202.424L201.128 18.4879C200.72 17.6719 200.324 17.0359 199.94 16.5799C199.556 16.0999 198.92 15.8599 198.032 15.8599H194.972V36.3799C194.972 37.3639 195.464 37.9639 196.448 38.1799L197.924 38.5399V38.8999H186.584ZM206.875 39.4399C205.483 39.4399 204.307 39.0439 203.347 38.2519C202.411 37.4599 201.943 36.3199 201.943 34.8319C201.943 33.7039 202.519 32.6719 203.671 31.7359C204.823 30.7759 206.635 30.0559 209.107 29.5759C209.491 29.5039 209.923 29.4319 210.403 29.3599C210.883 29.2639 211.387 29.1679 211.915 29.0719V26.2279C211.915 24.5959 211.711 23.4559 211.303 22.8079C210.919 22.1359 210.307 21.7999 209.467 21.7999C208.891 21.7999 208.435 21.9919 208.099 22.3759C207.763 22.7359 207.547 23.3719 207.451 24.2839L207.379 24.6799C207.331 25.7119 207.079 26.4679 206.623 26.9479C206.167 27.4279 205.603 27.6679 204.931 27.6679C204.307 27.6679 203.791 27.4759 203.383 27.0919C202.975 26.7079 202.771 26.1919 202.771 25.5439C202.771 24.5599 203.107 23.7319 203.779 23.0599C204.475 22.3879 205.387 21.8839 206.515 21.5479C207.643 21.2119 208.867 21.0439 210.187 21.0439C212.323 21.0439 213.967 21.5719 215.119 22.6279C216.295 23.6599 216.883 25.3519 216.883 27.7039V35.6599C216.883 36.7399 217.387 37.2799 218.395 37.2799H219.187L219.511 37.5679C219.055 38.1439 218.551 38.5879 217.999 38.8999C217.471 39.2119 216.715 39.3679 215.731 39.3679C214.675 39.3679 213.835 39.1279 213.211 38.6479C212.611 38.1439 212.215 37.4839 212.023 36.6679C211.303 37.4359 210.559 38.0959 209.791 38.6479C209.047 39.1759 208.075 39.4399 206.875 39.4399ZM209.071 37.2439C209.551 37.2439 209.995 37.1359 210.403 36.9199C210.835 36.6799 211.339 36.3199 211.915 35.8399V29.7919C211.675 29.8399 211.435 29.8879 211.195 29.9359C210.955 29.9839 210.679 30.0319 210.367 30.0799C209.263 30.3679 208.375 30.8599 207.703 31.5559C207.055 32.2279 206.731 33.1399 206.731 34.2919C206.731 35.2759 206.959 36.0199 207.415 36.5239C207.871 37.0039 208.423 37.2439 209.071 37.2439ZM225.808 39.3679L219.724 38.8999V38.5399L220.084 38.4679C221.02 38.2519 221.488 37.6519 221.488 36.6679V17.4079C221.488 16.9039 221.404 16.5199 221.236 16.2559C221.092 15.9919 220.78 15.8119 220.3 15.7159L219.796 15.5719V15.2119L226.204 13.6639L226.636 13.9879L226.492 19.0639V22.6999C227.284 22.1479 228.148 21.7399 229.084 21.4759C230.02 21.1879 230.968 21.0439 231.928 21.0439C233.296 21.0439 234.508 21.3679 235.564 22.0159C236.62 22.6399 237.448 23.6239 238.048 24.9679C238.672 26.2879 238.984 27.9919 238.984 30.0799C238.984 32.1679 238.636 33.9079 237.94 35.2999C237.268 36.6679 236.356 37.6999 235.204 38.3959C234.076 39.0919 232.828 39.4399 231.46 39.4399C230.572 39.4399 229.672 39.3199 228.76 39.0799C227.872 38.8399 227.08 38.5039 226.384 38.0719L225.808 39.3679ZM229.66 38.2159C230.428 38.2159 231.1 37.9759 231.676 37.4959C232.252 37.0159 232.708 36.1999 233.044 35.0479C233.38 33.8719 233.548 32.2639 233.548 30.2239C233.548 28.1839 233.392 26.6119 233.08 25.5079C232.768 24.4039 232.324 23.6359 231.748 23.2039C231.196 22.7719 230.524 22.5559 229.732 22.5559C228.604 22.5559 227.56 22.8679 226.6 23.4919V37.3159C227.056 37.6039 227.524 37.8319 228.004 37.9999C228.484 38.1439 229.036 38.2159 229.66 38.2159ZM239.937 38.8999V38.5399L240.369 38.3959C241.233 38.1079 241.665 37.5079 241.665 36.5959V17.3359C241.665 16.8559 241.569 16.4959 241.377 16.2559C241.185 15.9919 240.849 15.7999 240.369 15.6799L239.901 15.5719V15.2119L246.489 13.6639L246.921 13.9879L246.777 19.0279V31.3399C246.777 32.2279 246.777 33.1159 246.777 34.0039C246.801 34.8679 246.813 35.7319 246.813 36.5959C246.813 37.0759 246.909 37.4719 247.101 37.7839C247.293 38.0719 247.617 38.2879 248.073 38.4319L248.541 38.5399V38.8999H239.937ZM258.566 21.0439C260.126 21.0439 261.458 21.3679 262.562 22.0159C263.666 22.6399 264.506 23.5039 265.082 24.6079C265.682 25.6879 265.982 26.9239 265.982 28.3159C265.982 28.5799 265.97 28.8559 265.946 29.1439C265.922 29.4079 265.874 29.6479 265.802 29.8639H255.074C255.098 32.4559 255.554 34.3279 256.442 35.4799C257.354 36.6079 258.698 37.1719 260.474 37.1719C261.674 37.1719 262.646 36.9799 263.39 36.5959C264.134 36.2119 264.83 35.6479 265.478 34.9039L265.838 35.2279C265.094 36.5479 264.098 37.5799 262.85 38.3239C261.626 39.0679 260.15 39.4399 258.422 39.4399C256.718 39.4399 255.206 39.0799 253.886 38.3599C252.566 37.6159 251.534 36.5599 250.79 35.1919C250.046 33.8239 249.674 32.1919 249.674 30.2959C249.674 28.3279 250.106 26.6599 250.97 25.2919C251.834 23.8999 252.938 22.8439 254.282 22.1239C255.65 21.4039 257.078 21.0439 258.566 21.0439ZM258.458 21.7639C257.762 21.7639 257.162 21.9799 256.658 22.4119C256.178 22.8199 255.794 23.5639 255.506 24.6439C255.242 25.6999 255.098 27.1999 255.074 29.1439H261.23C261.47 26.5279 261.374 24.6439 260.942 23.4919C260.51 22.3399 259.682 21.7639 258.458 21.7639Z" fill="#E85D3A"/>
</svg>
