<svg width="68" height="68" viewBox="0 0 68 68" fill="none" xmlns="http://www.w3.org/2000/svg">
<path opacity="0.3" d="M33.6 61.6001C49.064 61.6001 61.6 49.0641 61.6 33.6001C61.6 18.1361 49.064 5.6001 33.6 5.6001C18.1361 5.6001 5.60004 18.1361 5.60004 33.6001C5.60004 49.0641 18.1361 61.6001 33.6 61.6001Z" stroke="#FFF8F0" stroke-width="1.12"/>
<path opacity="0.15" d="M33.5999 54.8798C45.3525 54.8798 54.8799 45.3524 54.8799 33.5998C54.8799 21.8472 45.3525 12.3198 33.5999 12.3198C21.8473 12.3198 12.3199 21.8472 12.3199 33.5998C12.3199 45.3524 21.8473 54.8798 33.5999 54.8798Z" stroke="#FFF8F0" stroke-width="0.84"/>
<path d="M19.5999 38.0799C19.5999 26.8799 24.2665 20.1599 33.5999 17.9199C42.9332 20.1599 47.5999 26.8799 47.5999 38.0799" stroke="#FFF8F0" stroke-width="1.4" stroke-linecap="round"/>
<path d="M16.8 38.0801H50.4" stroke="#FFF8F0" stroke-width="1.4" stroke-linecap="round"/>
<path opacity="0.5" d="M27.9998 15.68C28.7465 13.44 28.7465 11.2 27.9998 8.95996" stroke="#FFF8F0" stroke-width="0.84" stroke-linecap="round"/>
<path opacity="0.5" d="M33.5999 14.5603C34.3466 12.3203 34.3466 10.0803 33.5999 7.84033" stroke="#FFF8F0" stroke-width="0.84" stroke-linecap="round"/>
<path opacity="0.5" d="M39.2 15.68C39.9467 13.44 39.9467 11.2 39.2 8.95996" stroke="#FFF8F0" stroke-width="0.84" stroke-linecap="round"/>
<path opacity="0.8" d="M33.5999 47.0401C34.837 47.0401 35.8399 46.0372 35.8399 44.8001C35.8399 43.5629 34.837 42.5601 33.5999 42.5601C32.3628 42.5601 31.3599 43.5629 31.3599 44.8001C31.3599 46.0372 32.3628 47.0401 33.5999 47.0401Z" fill="#FFF8F0"/>
<path opacity="0.5" d="M33.5999 47.04V51.52" stroke="#FFF8F0" stroke-width="0.84" stroke-linecap="round"/>
</svg>
