<svg width="53" height="53" viewBox="0 0 53 53" fill="none" xmlns="http://www.w3.org/2000/svg">
<path opacity="0.15" d="M26.4 48.3999C38.5503 48.3999 48.4 38.5502 48.4 26.3999C48.4 14.2496 38.5503 4.3999 26.4 4.3999C14.2498 4.3999 4.40002 14.2496 4.40002 26.3999C4.40002 38.5502 14.2498 48.3999 26.4 48.3999Z" stroke="#1A1A2E" stroke-width="0.88"/>
<path d="M15.3998 29.9201C15.3998 21.1201 19.0665 15.8401 26.3998 14.0801C33.7332 15.8401 37.3998 21.1201 37.3998 29.9201" stroke="#E85D3A" stroke-width="1.1" stroke-linecap="round"/>
<path d="M13.2 29.9199H39.6" stroke="#E85D3A" stroke-width="1.1" stroke-linecap="round"/>
<path opacity="0.4" d="M21.9999 12.32C22.5865 10.56 22.5865 8.80004 21.9999 7.04004" stroke="#E85D3A" stroke-width="0.66" stroke-linecap="round"/>
<path opacity="0.4" d="M26.4 11.4397C26.9866 9.67967 26.9866 7.91967 26.4 6.15967" stroke="#E85D3A" stroke-width="0.66" stroke-linecap="round"/>
<path opacity="0.4" d="M30.8 12.32C31.3867 10.56 31.3867 8.80004 30.8 7.04004" stroke="#E85D3A" stroke-width="0.66" stroke-linecap="round"/>
<path opacity="0.6" d="M26.4001 36.9599C27.3721 36.9599 28.1601 36.172 28.1601 35.1999C28.1601 34.2279 27.3721 33.4399 26.4001 33.4399C25.4281 33.4399 24.6401 34.2279 24.6401 35.1999C24.6401 36.172 25.4281 36.9599 26.4001 36.9599Z" fill="#E85D3A"/>
</svg>
