<svg width="53" height="53" viewBox="0 0 53 53" fill="none" xmlns="http://www.w3.org/2000/svg">
<path opacity="0.12" d="M26.4 48.3999C38.5503 48.3999 48.4 38.5502 48.4 26.3999C48.4 14.2496 38.5503 4.3999 26.4 4.3999C14.2498 4.3999 4.40002 14.2496 4.40002 26.3999C4.40002 38.5502 14.2498 48.3999 26.4 48.3999Z" stroke="#1A1A2E" stroke-width="0.88"/>
<path d="M15.3998 29.9201C15.3998 21.1201 19.0664 15.8401 26.3998 14.0801C33.7331 15.8401 37.3998 21.1201 37.3998 29.9201" stroke="#1A1A2E" stroke-width="1.1" stroke-linecap="round"/>
<path d="M13.2 29.9199H39.6" stroke="#1A1A2E" stroke-width="1.1" stroke-linecap="round"/>
<path opacity="0.3" d="M21.9998 12.32C22.5864 10.56 22.5864 8.80004 21.9998 7.04004" stroke="#1A1A2E" stroke-width="0.66" stroke-linecap="round"/>
<path opacity="0.3" d="M26.3999 11.4397C26.9866 9.67967 26.9866 7.91967 26.3999 6.15967" stroke="#1A1A2E" stroke-width="0.66" stroke-linecap="round"/>
<path opacity="0.3" d="M30.8 12.32C31.3867 10.56 31.3867 8.80004 30.8 7.04004" stroke="#1A1A2E" stroke-width="0.66" stroke-linecap="round"/>
<path opacity="0.5" d="M26.4 36.9599C27.372 36.9599 28.16 36.172 28.16 35.1999C28.16 34.2279 27.372 33.4399 26.4 33.4399C25.428 33.4399 24.64 34.2279 24.64 35.1999C24.64 36.172 25.428 36.9599 26.4 36.9599Z" fill="#1A1A2E"/>
</svg>
