<svg width="355" height="68" viewBox="0 0 355 68" fill="none" xmlns="http://www.w3.org/2000/svg">
<path opacity="0.3" d="M33.6 61.6001C49.064 61.6001 61.6 49.0641 61.6 33.6001C61.6 18.1361 49.064 5.6001 33.6 5.6001C18.1361 5.6001 5.60004 18.1361 5.60004 33.6001C5.60004 49.0641 18.1361 61.6001 33.6 61.6001Z" stroke="#FFF8F0" stroke-width="1.12"/>
<path opacity="0.15" d="M33.5999 54.8798C45.3525 54.8798 54.8799 45.3524 54.8799 33.5998C54.8799 21.8472 45.3525 12.3198 33.5999 12.3198C21.8473 12.3198 12.3199 21.8472 12.3199 33.5998C12.3199 45.3524 21.8473 54.8798 33.5999 54.8798Z" stroke="#FFF8F0" stroke-width="0.84"/>
<path d="M19.5999 38.0799C19.5999 26.8799 24.2665 20.1599 33.5999 17.9199C42.9332 20.1599 47.5999 26.8799 47.5999 38.0799" stroke="#FFF8F0" stroke-width="1.4" stroke-linecap="round"/>
<path d="M16.8 38.0801H50.4" stroke="#FFF8F0" stroke-width="1.4" stroke-linecap="round"/>
<path opacity="0.5" d="M27.9998 15.68C28.7465 13.44 28.7465 11.2 27.9998 8.95996" stroke="#FFF8F0" stroke-width="0.84" stroke-linecap="round"/>
<path opacity="0.5" d="M33.5999 14.5603C34.3466 12.3203 34.3466 10.0803 33.5999 7.84033" stroke="#FFF8F0" stroke-width="0.84" stroke-linecap="round"/>
<path opacity="0.5" d="M39.2 15.68C39.9467 13.44 39.9467 11.2 39.2 8.95996" stroke="#FFF8F0" stroke-width="0.84" stroke-linecap="round"/>
<path opacity="0.8" d="M33.5999 47.0401C34.837 47.0401 35.8399 46.0372 35.8399 44.8001C35.8399 43.5629 34.837 42.5601 33.5999 42.5601C32.3628 42.5601 31.3599 43.5629 31.3599 44.8001C31.3599 46.0372 32.3628 47.0401 33.5999 47.0401Z" fill="#FFF8F0"/>
<path opacity="0.5" d="M33.5999 47.04V51.52" stroke="#FFF8F0" stroke-width="0.84" stroke-linecap="round"/>
<path d="M92.256 50.6001V50.1201L93.264 49.7361C94.288 49.3201 94.8 48.5041 94.8 47.2881V22.2321C94.8 20.9521 94.288 20.1361 93.264 19.7841L92.256 19.4001V18.9201H104.928C108.32 18.9201 111.232 19.5601 113.664 20.8401C116.128 22.0881 118.016 23.8961 119.328 26.2641C120.672 28.6001 121.344 31.4161 121.344 34.7121C121.344 38.0721 120.624 40.9361 119.184 43.3041C117.744 45.6721 115.728 47.4801 113.136 48.7281C110.576 49.9761 107.552 50.6001 104.064 50.6001H92.256ZM102 49.6401H104.064C106.368 49.6401 108.224 49.1921 109.632 48.2961C111.04 47.3681 112.064 45.8321 112.704 43.6881C113.376 41.5121 113.712 38.5361 113.712 34.7601C113.712 30.9841 113.376 28.0241 112.704 25.8801C112.064 23.7041 111.056 22.1681 109.68 21.2721C108.304 20.3441 106.496 19.8801 104.256 19.8801H102V49.6401ZM134.733 26.7921C136.813 26.7921 138.589 27.2241 140.061 28.0881C141.533 28.9201 142.653 30.0721 143.421 31.5441C144.221 32.9841 144.621 34.6321 144.621 36.4881C144.621 36.8401 144.605 37.2081 144.573 37.5921C144.541 37.9441 144.477 38.2641 144.381 38.5521H130.077C130.109 42.0081 130.717 44.5041 131.901 46.0401C133.117 47.5441 134.909 48.2961 137.277 48.2961C138.877 48.2961 140.173 48.0401 141.165 47.5281C142.157 47.0161 143.085 46.2641 143.949 45.2721L144.429 45.7041C143.437 47.4641 142.109 48.8401 140.445 49.8321C138.813 50.8241 136.845 51.3201 134.541 51.3201C132.269 51.3201 130.253 50.8401 128.493 49.8801C126.733 48.8881 125.357 47.4801 124.365 45.6561C123.373 43.8321 122.877 41.6561 122.877 39.1281C122.877 36.5041 123.453 34.2801 124.605 32.4561C125.757 30.6001 127.229 29.1921 129.021 28.2321C130.845 27.2721 132.749 26.7921 134.733 26.7921ZM134.589 27.7521C133.661 27.7521 132.861 28.0401 132.189 28.6161C131.549 29.1601 131.037 30.1521 130.653 31.5921C130.301 33.0001 130.109 35.0001 130.077 37.5921H138.285C138.605 34.1041 138.477 31.5921 137.901 30.0561C137.325 28.5201 136.221 27.7521 134.589 27.7521ZM145.807 50.6001V50.1201L146.383 49.9281C147.535 49.5441 148.111 48.7441 148.111 47.5281V21.8481C148.111 21.2081 147.983 20.7281 147.727 20.4081C147.471 20.0561 147.023 19.8001 146.383 19.6401L145.759 19.4961V19.0161L154.543 16.9521L155.119 17.3841L154.927 24.1041V40.5201C154.927 41.7041 154.927 42.8881 154.927 44.0721C154.959 45.2241 154.975 46.3761 154.975 47.5281C154.975 48.1681 155.103 48.6961 155.359 49.1121C155.615 49.4961 156.047 49.7841 156.655 49.9761L157.279 50.1201V50.6001H145.807ZM164.557 24.2961C163.469 24.2961 162.541 23.9601 161.773 23.2881C161.037 22.5841 160.669 21.7041 160.669 20.6481C160.669 19.5601 161.037 18.6801 161.773 18.0081C162.541 17.3361 163.469 17.0001 164.557 17.0001C165.645 17.0001 166.557 17.3361 167.293 18.0081C168.029 18.6801 168.397 19.5601 168.397 20.6481C168.397 21.7041 168.029 22.5841 167.293 23.2881C166.557 23.9601 165.645 24.2961 164.557 24.2961ZM158.893 50.6001V50.1201L159.565 49.9281C160.205 49.7361 160.637 49.4481 160.861 49.0641C161.117 48.6801 161.245 48.1681 161.245 47.5281V32.5041C161.245 31.8321 161.117 31.3361 160.861 31.0161C160.637 30.6641 160.205 30.4241 159.565 30.2961L158.893 30.1521V29.6721L167.677 26.8401L168.157 27.3201L168.013 34.1361V47.5761C168.013 48.2161 168.125 48.7281 168.349 49.1121C168.605 49.4961 169.037 49.7841 169.645 49.9761L170.125 50.1201V50.6001H158.893ZM181.981 50.7441L173.485 30.3441C173.037 29.2561 172.269 28.5361 171.181 28.1841L170.509 27.9921V27.5121H182.941V27.9921L182.077 28.1841C180.829 28.5041 180.445 29.3361 180.925 30.6801L185.965 44.0721L190.669 30.7761C190.925 30.1361 190.989 29.6081 190.861 29.1921C190.733 28.7761 190.349 28.4721 189.709 28.2801L188.509 27.9921V27.5121H195.469V27.9921L194.077 28.3281C193.469 28.4881 192.989 28.7281 192.637 29.0481C192.317 29.3681 192.045 29.8481 191.821 30.4881L184.765 50.7441H181.981ZM206.864 26.7921C208.944 26.7921 210.72 27.2241 212.192 28.0881C213.664 28.9201 214.784 30.0721 215.552 31.5441C216.352 32.9841 216.752 34.6321 216.752 36.4881C216.752 36.8401 216.736 37.2081 216.704 37.5921C216.672 37.9441 216.608 38.2641 216.512 38.5521H202.208C202.24 42.0081 202.848 44.5041 204.032 46.0401C205.248 47.5441 207.04 48.2961 209.408 48.2961C211.008 48.2961 212.304 48.0401 213.296 47.5281C214.288 47.0161 215.216 46.2641 216.08 45.2721L216.56 45.7041C215.568 47.4641 214.24 48.8401 212.576 49.8321C210.944 50.8241 208.976 51.3201 206.672 51.3201C204.4 51.3201 202.384 50.8401 200.624 49.8801C198.864 48.8881 197.488 47.4801 196.496 45.6561C195.504 43.8321 195.008 41.6561 195.008 39.1281C195.008 36.5041 195.584 34.2801 196.736 32.4561C197.888 30.6001 199.36 29.1921 201.152 28.2321C202.976 27.2721 204.88 26.7921 206.864 26.7921ZM206.72 27.7521C205.792 27.7521 204.992 28.0401 204.32 28.6161C203.68 29.1601 203.168 30.1521 202.784 31.5921C202.432 33.0001 202.24 35.0001 202.208 37.5921H210.416C210.736 34.1041 210.608 31.5921 210.032 30.0561C209.456 28.5201 208.352 27.7521 206.72 27.7521ZM218.544 50.6001V50.1201L219.264 49.9281C219.904 49.7361 220.336 49.4481 220.56 49.0641C220.816 48.6801 220.944 48.1841 220.944 47.5761V32.5521C220.944 31.8481 220.816 31.3361 220.56 31.0161C220.336 30.6641 219.904 30.4241 219.264 30.2961L218.544 30.1041V29.6241L226.8 26.8401L227.28 27.3201L227.712 31.4481V31.8321C228.16 30.9361 228.736 30.1201 229.44 29.3841C230.176 28.6161 230.976 27.9921 231.84 27.5121C232.736 27.0321 233.616 26.7921 234.48 26.7921C235.696 26.7921 236.624 27.1281 237.264 27.8001C237.904 28.4721 238.224 29.3201 238.224 30.3441C238.224 31.4321 237.904 32.2801 237.264 32.8881C236.656 33.4641 235.92 33.7521 235.056 33.7521C233.712 33.7521 232.528 33.0801 231.504 31.7361L231.408 31.6401C231.088 31.1921 230.72 30.9521 230.304 30.9201C229.888 30.8561 229.504 31.0481 229.152 31.4961C228.832 31.7841 228.56 32.1361 228.336 32.5521C228.144 32.9361 227.952 33.3841 227.76 33.8961V47.2881C227.76 48.5681 228.32 49.3681 229.44 49.6881L230.976 50.1201V50.6001H218.544Z" fill="#FFF8F0"/>
<path d="M245.379 50.6001V50.1201L247.347 49.6401C248.659 49.3521 249.315 48.5521 249.315 47.2401V19.8801H245.235C244.051 19.8801 243.203 20.2001 242.691 20.8401C242.179 21.4481 241.635 22.2961 241.059 23.3841L239.331 26.7441H238.851L239.091 18.9201H266.787L266.979 26.7441H266.499L264.771 23.3841C264.227 22.2961 263.699 21.4481 263.187 20.8401C262.675 20.2001 261.827 19.8801 260.643 19.8801H256.563V47.2401C256.563 48.5521 257.219 49.3521 258.531 49.6401L260.499 50.1201V50.6001H245.379ZM272.634 51.3201C270.778 51.3201 269.21 50.7921 267.93 49.7361C266.682 48.6801 266.058 47.1601 266.058 45.1761C266.058 43.6721 266.826 42.2961 268.362 41.0481C269.898 39.7681 272.314 38.8081 275.61 38.1681C276.122 38.0721 276.698 37.9761 277.338 37.8801C277.978 37.7521 278.65 37.6241 279.354 37.4961V33.7041C279.354 31.5281 279.082 30.0081 278.538 29.1441C278.026 28.2481 277.21 27.8001 276.09 27.8001C275.322 27.8001 274.714 28.0561 274.266 28.5681C273.818 29.0481 273.53 29.8961 273.402 31.1121L273.306 31.6401C273.242 33.0161 272.906 34.0241 272.298 34.6641C271.69 35.3041 270.938 35.6241 270.042 35.6241C269.21 35.6241 268.522 35.3681 267.978 34.8561C267.434 34.3441 267.162 33.6561 267.162 32.7921C267.162 31.4801 267.61 30.3761 268.506 29.4801C269.434 28.5841 270.65 27.9121 272.154 27.4641C273.658 27.0161 275.29 26.7921 277.05 26.7921C279.898 26.7921 282.09 27.4961 283.626 28.9041C285.194 30.2801 285.978 32.5361 285.978 35.6721V46.2801C285.978 47.7201 286.65 48.4401 287.994 48.4401H289.05L289.482 48.8241C288.874 49.5921 288.202 50.1841 287.466 50.6001C286.762 51.0161 285.754 51.2241 284.442 51.2241C283.034 51.2241 281.914 50.9041 281.082 50.2641C280.282 49.5921 279.754 48.7121 279.498 47.6241C278.538 48.6481 277.546 49.5281 276.522 50.2641C275.53 50.9681 274.234 51.3201 272.634 51.3201ZM275.562 48.3921C276.202 48.3921 276.794 48.2481 277.338 47.9601C277.914 47.6401 278.586 47.1601 279.354 46.5201V38.4561C279.034 38.5201 278.714 38.5841 278.394 38.6481C278.074 38.7121 277.706 38.7761 277.29 38.8401C275.818 39.2241 274.634 39.8801 273.738 40.8081C272.874 41.7041 272.442 42.9201 272.442 44.4561C272.442 45.7681 272.746 46.7601 273.354 47.4321C273.962 48.0721 274.698 48.3921 275.562 48.3921ZM298.077 51.2241L289.965 50.6001V50.1201L290.445 50.0241C291.693 49.7361 292.317 48.9361 292.317 47.6241V21.9441C292.317 21.2721 292.205 20.7601 291.981 20.4081C291.789 20.0561 291.373 19.8161 290.733 19.6881L290.061 19.4961V19.0161L298.605 16.9521L299.181 17.3841L298.989 24.1521V29.0001C300.045 28.2641 301.197 27.7201 302.445 27.3681C303.693 26.9841 304.957 26.7921 306.237 26.7921C308.061 26.7921 309.677 27.2241 311.085 28.0881C312.493 28.9201 313.597 30.2321 314.397 32.0241C315.229 33.7841 315.645 36.0561 315.645 38.8401C315.645 41.6241 315.181 43.9441 314.253 45.8001C313.357 47.6241 312.141 49.0001 310.605 49.9281C309.101 50.8561 307.437 51.3201 305.613 51.3201C304.429 51.3201 303.229 51.1601 302.013 50.8401C300.829 50.5201 299.773 50.0721 298.845 49.4961L298.077 51.2241ZM303.213 49.6881C304.237 49.6881 305.133 49.3681 305.901 48.7281C306.669 48.0881 307.277 47.0001 307.725 45.4641C308.173 43.8961 308.397 41.7521 308.397 39.0321C308.397 36.3121 308.189 34.2161 307.773 32.7441C307.357 31.2721 306.765 30.2481 305.997 29.6721C305.261 29.0961 304.365 28.8081 303.309 28.8081C301.805 28.8081 300.413 29.2241 299.133 30.0561V48.4881C299.741 48.8721 300.365 49.1761 301.005 49.4001C301.645 49.5921 302.381 49.6881 303.213 49.6881ZM317.116 50.6001V50.1201L317.692 49.9281C318.844 49.5441 319.42 48.7441 319.42 47.5281V21.8481C319.42 21.2081 319.292 20.7281 319.036 20.4081C318.78 20.0561 318.332 19.8001 317.692 19.6401L317.068 19.4961V19.0161L325.852 16.9521L326.428 17.3841L326.236 24.1041V40.5201C326.236 41.7041 326.236 42.8881 326.236 44.0721C326.268 45.2241 326.284 46.3761 326.284 47.5281C326.284 48.1681 326.412 48.6961 326.668 49.1121C326.924 49.4961 327.356 49.7841 327.964 49.9761L328.588 50.1201V50.6001H317.116ZM342.155 26.7921C344.235 26.7921 346.011 27.2241 347.483 28.0881C348.955 28.9201 350.075 30.0721 350.843 31.5441C351.643 32.9841 352.043 34.6321 352.043 36.4881C352.043 36.8401 352.027 37.2081 351.995 37.5921C351.963 37.9441 351.899 38.2641 351.803 38.5521H337.499C337.531 42.0081 338.139 44.5041 339.323 46.0401C340.539 47.5441 342.331 48.2961 344.699 48.2961C346.299 48.2961 347.595 48.0401 348.587 47.5281C349.579 47.0161 350.507 46.2641 351.371 45.2721L351.851 45.7041C350.859 47.4641 349.531 48.8401 347.867 49.8321C346.235 50.8241 344.267 51.3201 341.963 51.3201C339.691 51.3201 337.675 50.8401 335.915 49.8801C334.155 48.8881 332.779 47.4801 331.787 45.6561C330.795 43.8321 330.299 41.6561 330.299 39.1281C330.299 36.5041 330.875 34.2801 332.027 32.4561C333.179 30.6001 334.651 29.1921 336.443 28.2321C338.267 27.2721 340.171 26.7921 342.155 26.7921ZM342.011 27.7521C341.083 27.7521 340.283 28.0401 339.611 28.6161C338.971 29.1601 338.459 30.1521 338.075 31.5921C337.723 33.0001 337.531 35.0001 337.499 37.5921H345.707C346.027 34.1041 345.899 31.5921 345.323 30.0561C344.747 28.5201 343.643 27.7521 342.011 27.7521Z" fill="#E85D3A"/>
</svg>
